# File created by Blade
# Date/Time:  Tue Apr 07 20:17:56 2015
# Frame Rate: 120.000 fps
#------------------------------------------------------
:FULLY-SPECIFIED
:DEGREES
419
root 5.511202 33.236165 -10.786083 10.127387 -24.377825 -23.110273
Spine 6.958494 13.146157 14.355899
Head 0.526750 1.878050 9.154218
LeftShoulder -19.466520 43.551356 13.269958
LeftArm 50.493272 -29.681253 -84.069397
LeftForeArm -1.588298 -0.000000 19.276748
LeftHand 8.946185 -0.000000 1.337703
LeftHandThumb1 -26.253704 0.000000 33.147579
RightShoulder 4.521351 5.977041 -14.304911
RightArm 28.825269 -14.379469 88.518337
RightForeArm 10.864901 0.000000 4.723824
RightHand 4.911059 -0.000000 -0.554524
RightHandThumb1 -24.326973 -0.000000 -32.862282
LeftUpLeg -7.932333 9.857171 14.233049
LeftLeg 11.985357 -0.000000 -0.000000
LeftFoot -12.407313 25.004574 -5.603624
LeftToeBase -8.088816 -0.000000 0.000000
RightUpLeg -102.648647 -30.107267 13.317827
RightLeg 109.055464 -0.000000 -0.000000
RightFoot 37.001240 -6.291502 2.313935
RightToeBase 31.804567 -0.000000 -0.000000
420
root 5.519919 33.235126 -10.797710 10.156797 -24.457594 -23.130205
Spine 6.954113 13.152174 14.312531
Head 0.422901 1.892503 9.160367
LeftShoulder -19.415929 43.491932 13.308926
LeftArm 50.499820 -29.565638 -84.056714
LeftForeArm -1.361865 -0.000000 19.494058
LeftHand 8.897608 0.000000 1.714628
LeftHandThumb1 -26.253704 0.000000 33.147579
RightShoulder 4.525773 6.007784 -14.314533
RightArm 28.786763 -14.227909 88.572185
RightForeArm 10.765914 -0.000000 4.660159
RightHand 4.774110 -0.000000 -0.586060
RightHandThumb1 -24.326973 -0.000000 -32.862282
LeftUpLeg -7.991038 10.224477 14.266223
LeftLeg 12.116174 -0.000000 -0.000000
LeftFoot -12.581996 24.510321 -6.245884
LeftToeBase -9.019745 -0.000000 0.000000
RightUpLeg -102.611482 -30.103917 13.305880
RightLeg 109.000567 -0.000000 -0.000000
RightFoot 37.144338 -6.222908 2.378693
RightToeBase 31.678043 -0.000000 -0.000000
421
root 5.528829 33.234445 -10.805004 10.148245 -24.511917 -23.138609
Spine 6.968864 13.118239 14.261577
Head 0.325935 1.942207 9.184408
LeftShoulder -19.405138 43.470256 13.314004
LeftArm 50.538796 -29.456432 -84.047467
LeftForeArm -1.201749 -0.000000 19.729362
LeftHand 8.912359 -0.000000 1.737288
LeftHandThumb1 -26.253704 0.000000 33.147579
RightShoulder 4.536196 6.021891 -14.303863
RightArm 28.799432 -14.116589 88.572931
RightForeArm 10.933481 -0.000000 4.528162
RightHand 4.778033 -0.000000 -0.659085
RightHandThumb1 -24.326973 -0.000000 -32.862282
LeftUpLeg -8.032633 10.432012 14.306382
LeftLeg 12.285815 -0.000000 -0.000000
LeftFoot -12.954332 24.120374 -7.106453
LeftToeBase -8.582947 -0.000000 0.000000
RightUpLeg -102.581692 -30.165645 13.279215
RightLeg 108.922736 -0.000000 -0.000000
RightFoot 37.301414 -6.107832 2.391300
RightToeBase 31.750628 -0.000000 -0.000000
422
root 5.538693 33.234331 -10.809173 10.108023 -24.560723 -23.121431
Spine 7.008074 13.079759 14.195688
Head 0.228117 1.945136 9.206208
LeftShoulder -19.436336 43.454016 13.275554
LeftArm 50.632646 -29.323213 -84.013221
LeftForeArm -1.143986 -0.000000 19.898734
LeftHand 8.926340 -0.000000 1.660339
LeftHandThumb1 -26.253704 0.000000 33.147579
RightShoulder 4.537396 6.077374 -14.304391
RightArm 28.765954 -14.009685 88.619055
RightForeArm 11.211112 -0.000000 4.403249
RightHand 4.732979 -0.000000 -0.753154
RightHandThumb1 -24.326973 -0.000000 -32.862282
LeftUpLeg -8.055661 10.581928 14.324354
LeftLeg 12.443269 -0.000000 -0.000000
LeftFoot -13.237199 23.831297 -7.807667
LeftToeBase -8.277884 -0.000000 0.000000
RightUpLeg -102.589535 -30.276583 13.243936
RightLeg 108.818499 -0.000000 -0.000000
RightFoot 37.469167 -6.082446 2.407494
RightToeBase 31.513165 -0.000000 -0.000000
423
root 5.544785 33.234302 -10.815619 10.073654 -24.630435 -23.089872
Spine 7.033155 13.088813 14.083653
Head 0.143814 1.933795 9.284445
LeftShoulder -19.445720 43.443755 13.264944
LeftArm 50.761607 -29.212250 -83.981827
LeftForeArm -1.106750 -0.000000 20.034357
LeftHand 8.925120 -0.000000 1.788911
LeftHandThumb1 -26.253704 0.000000 33.147579
RightShoulder 4.553149 6.112150 -14.265485
RightArm 28.746645 -13.795100 88.682672
RightForeArm 11.748265 -0.000000 4.215991
RightHand 4.852798 -0.000000 -0.773504
RightHandThumb1 -24.326973 -0.000000 -32.862282
LeftUpLeg -8.068946 10.782934 14.323532
LeftLeg 12.549547 -0.000000 -0.000000
LeftFoot -13.398576 23.509666 -8.409722
LeftToeBase -8.279398 -0.000000 0.000000
RightUpLeg -102.648932 -30.346458 13.198073
RightLeg 108.700102 -0.000000 -0.000000
RightFoot 37.591871 -6.123610 2.455018
RightToeBase 31.759673 -0.000000 -0.000000
